<svg width="468" height="49" viewBox="0 0 468 49" fill="none" xmlns="http://www.w3.org/2000/svg">
<path d="M15.7578 37L4.25 6.67188H4.0625C4.125 7.3125 4.17969 8.09375 4.22656 9.01562C4.27344 9.9375 4.3125 10.9453 4.34375 12.0391C4.375 13.1172 4.39062 14.2188 4.39062 15.3438V37H0.6875V2.73438H6.59375L17.4453 31.2344H17.6094L28.625 2.73438H34.4844V37H30.5469V15.0625C30.5469 14.0469 30.5625 13.0312 30.5938 12.0156C30.625 10.9844 30.6641 10.0156 30.7109 9.10938C30.7578 8.1875 30.8047 7.39062 30.8516 6.71875H30.6641L19.0156 37H15.7578ZM53.1641 10.8438C55.3516 10.8438 57.2266 11.3281 58.7891 12.2969C60.3516 13.2656 61.5469 14.625 62.375 16.375C63.2031 18.1094 63.6172 20.1406 63.6172 22.4688V24.8828H45.875C45.9219 27.8984 46.6719 30.1953 48.125 31.7734C49.5781 33.3516 51.625 34.1406 54.2656 34.1406C55.8906 34.1406 57.3281 33.9922 58.5781 33.6953C59.8281 33.3984 61.125 32.9609 62.4688 32.3828V35.8047C61.1719 36.3828 59.8828 36.8047 58.6016 37.0703C57.3359 37.3359 55.8359 37.4688 54.1016 37.4688C51.6328 37.4688 49.4766 36.9688 47.6328 35.9688C45.8047 34.9531 44.3828 33.4688 43.3672 31.5156C42.3516 29.5625 41.8438 27.1719 41.8438 24.3438C41.8438 21.5781 42.3047 19.1875 43.2266 17.1719C44.1641 15.1406 45.4766 13.5781 47.1641 12.4844C48.8672 11.3906 50.8672 10.8438 53.1641 10.8438ZM53.1172 14.0312C51.0391 14.0312 49.3828 14.7109 48.1484 16.0703C46.9141 17.4297 46.1797 19.3281 45.9453 21.7656H59.5391C59.5234 20.2344 59.2812 18.8906 58.8125 17.7344C58.3594 16.5625 57.6641 15.6562 56.7266 15.0156C55.7891 14.3594 54.5859 14.0312 53.1172 14.0312ZM79.3672 37.4688C76.1172 37.4688 73.5391 36.3594 71.6328 34.1406C69.7422 31.9219 68.7969 28.625 68.7969 24.25C68.7969 19.8281 69.7656 16.4922 71.7031 14.2422C73.6406 11.9766 76.2188 10.8438 79.4375 10.8438C80.7969 10.8438 81.9844 11.0234 83 11.3828C84.0156 11.7422 84.8906 12.2266 85.625 12.8359C86.3594 13.4297 86.9766 14.1094 87.4766 14.875H87.7578C87.6953 14.3906 87.6328 13.7266 87.5703 12.8828C87.5078 12.0391 87.4766 11.3516 87.4766 10.8203V0.53125H91.3672V37H88.2266L87.6406 33.3438H87.4766C86.9922 34.1094 86.375 34.8047 85.625 35.4297C84.8906 36.0547 84.0078 36.5547 82.9766 36.9297C81.9609 37.2891 80.7578 37.4688 79.3672 37.4688ZM79.9766 34.2344C82.7266 34.2344 84.6719 33.4531 85.8125 31.8906C86.9531 30.3281 87.5234 28.0078 87.5234 24.9297V24.2266C87.5234 20.9609 86.9766 18.4531 85.8828 16.7031C84.8047 14.9531 82.8359 14.0781 79.9766 14.0781C77.5859 14.0781 75.7969 15 74.6094 16.8438C73.4219 18.6719 72.8281 21.1719 72.8281 24.3438C72.8281 27.5 73.4141 29.9375 74.5859 31.6562C75.7734 33.375 77.5703 34.2344 79.9766 34.2344ZM103.508 11.3125V37H99.6172V11.3125H103.508ZM101.609 1.70312C102.25 1.70312 102.797 1.91406 103.25 2.33594C103.719 2.74219 103.953 3.38281 103.953 4.25781C103.953 5.11719 103.719 5.75781 103.25 6.17969C102.797 6.60156 102.25 6.8125 101.609 6.8125C100.938 6.8125 100.375 6.60156 99.9219 6.17969C99.4844 5.75781 99.2656 5.11719 99.2656 4.25781C99.2656 3.38281 99.4844 2.74219 99.9219 2.33594C100.375 1.91406 100.938 1.70312 101.609 1.70312ZM120.055 34.2812C120.695 34.2812 121.352 34.2266 122.023 34.1172C122.695 34.0078 123.242 33.875 123.664 33.7188V36.7422C123.211 36.9453 122.578 37.1172 121.766 37.2578C120.969 37.3984 120.188 37.4688 119.422 37.4688C118.062 37.4688 116.828 37.2344 115.719 36.7656C114.609 36.2812 113.719 35.4688 113.047 34.3281C112.391 33.1875 112.062 31.6094 112.062 29.5938V14.3594H108.406V12.4609L112.086 10.9375L113.633 5.35938H115.977V11.3125H123.5V14.3594H115.977V29.4766C115.977 31.0859 116.344 32.2891 117.078 33.0859C117.828 33.8828 118.82 34.2812 120.055 34.2812ZM138.477 10.8906C141.539 10.8906 143.812 11.5781 145.297 12.9531C146.781 14.3281 147.523 16.5234 147.523 19.5391V37H144.688L143.938 33.2031H143.75C143.031 34.1406 142.281 34.9297 141.5 35.5703C140.719 36.1953 139.812 36.6719 138.781 37C137.766 37.3125 136.516 37.4688 135.031 37.4688C133.469 37.4688 132.078 37.1953 130.859 36.6484C129.656 36.1016 128.703 35.2734 128 34.1641C127.312 33.0547 126.969 31.6484 126.969 29.9453C126.969 27.3828 127.984 25.4141 130.016 24.0391C132.047 22.6641 135.141 21.9141 139.297 21.7891L143.727 21.6016V20.0312C143.727 17.8125 143.25 16.2578 142.297 15.3672C141.344 14.4766 140 14.0312 138.266 14.0312C136.922 14.0312 135.641 14.2266 134.422 14.6172C133.203 15.0078 132.047 15.4688 130.953 16L129.758 13.0469C130.914 12.4531 132.242 11.9453 133.742 11.5234C135.242 11.1016 136.82 10.8906 138.477 10.8906ZM143.68 24.3438L139.766 24.5078C136.562 24.6328 134.305 25.1562 132.992 26.0781C131.68 27 131.023 28.3047 131.023 29.9922C131.023 31.4609 131.469 32.5469 132.359 33.25C133.25 33.9531 134.43 34.3047 135.898 34.3047C138.18 34.3047 140.047 33.6719 141.5 32.4062C142.953 31.1406 143.68 29.2422 143.68 26.7109V24.3438ZM163.836 34.2812C164.477 34.2812 165.133 34.2266 165.805 34.1172C166.477 34.0078 167.023 33.875 167.445 33.7188V36.7422C166.992 36.9453 166.359 37.1172 165.547 37.2578C164.75 37.3984 163.969 37.4688 163.203 37.4688C161.844 37.4688 160.609 37.2344 159.5 36.7656C158.391 36.2812 157.5 35.4688 156.828 34.3281C156.172 33.1875 155.844 31.6094 155.844 29.5938V14.3594H152.188V12.4609L155.867 10.9375L157.414 5.35938H159.758V11.3125H167.281V14.3594H159.758V29.4766C159.758 31.0859 160.125 32.2891 160.859 33.0859C161.609 33.8828 162.602 34.2812 163.836 34.2812ZM176.539 11.3125V37H172.648V11.3125H176.539ZM174.641 1.70312C175.281 1.70312 175.828 1.91406 176.281 2.33594C176.75 2.74219 176.984 3.38281 176.984 4.25781C176.984 5.11719 176.75 5.75781 176.281 6.17969C175.828 6.60156 175.281 6.8125 174.641 6.8125C173.969 6.8125 173.406 6.60156 172.953 6.17969C172.516 5.75781 172.297 5.11719 172.297 4.25781C172.297 3.38281 172.516 2.74219 172.953 2.33594C173.406 1.91406 173.969 1.70312 174.641 1.70312ZM206.938 24.1094C206.938 26.2188 206.664 28.1016 206.117 29.7578C205.57 31.4141 204.781 32.8125 203.75 33.9531C202.719 35.0938 201.469 35.9688 200 36.5781C198.547 37.1719 196.898 37.4688 195.055 37.4688C193.336 37.4688 191.758 37.1719 190.32 36.5781C188.898 35.9688 187.664 35.0938 186.617 33.9531C185.586 32.8125 184.781 31.4141 184.203 29.7578C183.641 28.1016 183.359 26.2188 183.359 24.1094C183.359 21.2969 183.836 18.9062 184.789 16.9375C185.742 14.9531 187.102 13.4453 188.867 12.4141C190.648 11.3672 192.766 10.8438 195.219 10.8438C197.562 10.8438 199.609 11.3672 201.359 12.4141C203.125 13.4609 204.492 14.9766 205.461 16.9609C206.445 18.9297 206.938 21.3125 206.938 24.1094ZM187.391 24.1094C187.391 26.1719 187.664 27.9609 188.211 29.4766C188.758 30.9922 189.602 32.1641 190.742 32.9922C191.883 33.8203 193.352 34.2344 195.148 34.2344C196.93 34.2344 198.391 33.8203 199.531 32.9922C200.688 32.1641 201.539 30.9922 202.086 29.4766C202.633 27.9609 202.906 26.1719 202.906 24.1094C202.906 22.0625 202.633 20.2969 202.086 18.8125C201.539 17.3125 200.695 16.1562 199.555 15.3438C198.414 14.5312 196.938 14.125 195.125 14.125C192.453 14.125 190.492 15.0078 189.242 16.7734C188.008 18.5391 187.391 20.9844 187.391 24.1094ZM225.828 10.8438C228.875 10.8438 231.18 11.5938 232.742 13.0938C234.305 14.5781 235.086 16.9688 235.086 20.2656V37H231.242V20.5234C231.242 18.3828 230.75 16.7812 229.766 15.7188C228.797 14.6562 227.305 14.125 225.289 14.125C222.445 14.125 220.445 14.9297 219.289 16.5391C218.133 18.1484 217.555 20.4844 217.555 23.5469V37H213.664V11.3125H216.805L217.391 15.0156H217.602C218.148 14.1094 218.844 13.3516 219.688 12.7422C220.531 12.1172 221.477 11.6484 222.523 11.3359C223.57 11.0078 224.672 10.8438 225.828 10.8438ZM265.18 37L260.961 26.125H247.227L243.031 37H239L252.406 2.59375H255.992L269.305 37H265.18ZM259.766 22.5859L255.758 11.7812C255.664 11.5 255.508 11.0391 255.289 10.3984C255.086 9.75781 254.875 9.09375 254.656 8.40625C254.438 7.71875 254.258 7.16406 254.117 6.74219C253.961 7.38281 253.789 8.02344 253.602 8.66406C253.43 9.28906 253.258 9.875 253.086 10.4219C252.914 10.9531 252.766 11.4062 252.641 11.7812L248.562 22.5859H259.766ZM285.641 10.8438C288.688 10.8438 290.992 11.5938 292.555 13.0938C294.117 14.5781 294.898 16.9688 294.898 20.2656V37H291.055V20.5234C291.055 18.3828 290.562 16.7812 289.578 15.7188C288.609 14.6562 287.117 14.125 285.102 14.125C282.258 14.125 280.258 14.9297 279.102 16.5391C277.945 18.1484 277.367 20.4844 277.367 23.5469V37H273.477V11.3125H276.617L277.203 15.0156H277.414C277.961 14.1094 278.656 13.3516 279.5 12.7422C280.344 12.1172 281.289 11.6484 282.336 11.3359C283.383 11.0078 284.484 10.8438 285.641 10.8438ZM298.859 11.3125H303.031L308.703 26.2188C309.031 27.0938 309.336 27.9375 309.617 28.75C309.898 29.5469 310.148 30.3125 310.367 31.0469C310.586 31.7812 310.758 32.4922 310.883 33.1797H311.047C311.266 32.3984 311.578 31.375 311.984 30.1094C312.391 28.8281 312.828 27.5234 313.297 26.1953L318.664 11.3125H322.859L311.68 40.7734C311.086 42.3516 310.391 43.7266 309.594 44.8984C308.812 46.0703 307.859 46.9688 306.734 47.5938C305.609 48.2344 304.25 48.5547 302.656 48.5547C301.922 48.5547 301.273 48.5078 300.711 48.4141C300.148 48.3359 299.664 48.2422 299.258 48.1328V45.0156C299.602 45.0938 300.016 45.1641 300.5 45.2266C301 45.2891 301.516 45.3203 302.047 45.3203C303.016 45.3203 303.852 45.1328 304.555 44.7578C305.273 44.3984 305.891 43.8672 306.406 43.1641C306.922 42.4609 307.367 41.625 307.742 40.6562L309.148 37.0469L298.859 11.3125ZM366.477 2.73438L357.312 37H353.305L346.508 13.9375C346.305 13.2812 346.109 12.625 345.922 11.9688C345.75 11.2969 345.586 10.6641 345.43 10.0703C345.273 9.46094 345.141 8.92969 345.031 8.47656C344.938 8.00781 344.867 7.65625 344.82 7.42188C344.789 7.65625 344.727 8 344.633 8.45312C344.555 8.90625 344.445 9.42969 344.305 10.0234C344.18 10.6172 344.023 11.25 343.836 11.9219C343.664 12.5938 343.477 13.2734 343.273 13.9609L336.664 37H332.656L323.562 2.73438H327.711L333.219 24.2266C333.406 24.9453 333.578 25.6562 333.734 26.3594C333.906 27.0469 334.055 27.7188 334.18 28.375C334.32 29.0312 334.445 29.6719 334.555 30.2969C334.664 30.9219 334.766 31.5312 334.859 32.125C334.938 31.5156 335.039 30.8828 335.164 30.2266C335.289 29.5547 335.422 28.875 335.562 28.1875C335.719 27.5 335.883 26.8047 336.055 26.1016C336.242 25.3984 336.438 24.6953 336.641 23.9922L342.805 2.73438H346.906L353.328 24.1562C353.547 24.8906 353.75 25.6172 353.938 26.3359C354.125 27.0547 354.289 27.7578 354.43 28.4453C354.586 29.1172 354.719 29.7656 354.828 30.3906C354.953 31 355.062 31.5781 355.156 32.125C355.266 31.3594 355.398 30.5547 355.555 29.7109C355.711 28.8672 355.891 27.9844 356.094 27.0625C356.312 26.1406 356.547 25.1875 356.797 24.2031L362.305 2.73438H366.477ZM375.195 0.53125V11.4297C375.195 12.0547 375.18 12.6875 375.148 13.3281C375.117 13.9531 375.062 14.5312 374.984 15.0625H375.242C375.773 14.1562 376.445 13.3984 377.258 12.7891C378.086 12.1641 379.023 11.6953 380.07 11.3828C381.117 11.0547 382.227 10.8906 383.398 10.8906C385.461 10.8906 387.18 11.2188 388.555 11.875C389.945 12.5312 390.984 13.5469 391.672 14.9219C392.375 16.2969 392.727 18.0781 392.727 20.2656V37H388.883V20.5234C388.883 18.3828 388.391 16.7812 387.406 15.7188C386.438 14.6562 384.945 14.125 382.93 14.125C381.023 14.125 379.5 14.4922 378.359 15.2266C377.234 15.9453 376.422 17.0078 375.922 18.4141C375.438 19.8203 375.195 21.5391 375.195 23.5703V37H371.305V0.53125H375.195ZM410.633 10.8438C412.82 10.8438 414.695 11.3281 416.258 12.2969C417.82 13.2656 419.016 14.625 419.844 16.375C420.672 18.1094 421.086 20.1406 421.086 22.4688V24.8828H403.344C403.391 27.8984 404.141 30.1953 405.594 31.7734C407.047 33.3516 409.094 34.1406 411.734 34.1406C413.359 34.1406 414.797 33.9922 416.047 33.6953C417.297 33.3984 418.594 32.9609 419.938 32.3828V35.8047C418.641 36.3828 417.352 36.8047 416.07 37.0703C414.805 37.3359 413.305 37.4688 411.57 37.4688C409.102 37.4688 406.945 36.9688 405.102 35.9688C403.273 34.9531 401.852 33.4688 400.836 31.5156C399.82 29.5625 399.312 27.1719 399.312 24.3438C399.312 21.5781 399.773 19.1875 400.695 17.1719C401.633 15.1406 402.945 13.5781 404.633 12.4844C406.336 11.3906 408.336 10.8438 410.633 10.8438ZM410.586 14.0312C408.508 14.0312 406.852 14.7109 405.617 16.0703C404.383 17.4297 403.648 19.3281 403.414 21.7656H417.008C416.992 20.2344 416.75 18.8906 416.281 17.7344C415.828 16.5625 415.133 15.6562 414.195 15.0156C413.258 14.3594 412.055 14.0312 410.586 14.0312ZM439.367 10.8438C439.883 10.8438 440.422 10.875 440.984 10.9375C441.547 10.9844 442.047 11.0547 442.484 11.1484L441.992 14.7578C441.57 14.6484 441.102 14.5625 440.586 14.5C440.07 14.4375 439.586 14.4062 439.133 14.4062C438.102 14.4062 437.125 14.6172 436.203 15.0391C435.297 15.4453 434.5 16.0391 433.812 16.8203C433.125 17.5859 432.586 18.5156 432.195 19.6094C431.805 20.6875 431.609 21.8906 431.609 23.2188V37H427.695V11.3125H430.93L431.352 16.0469H431.516C432.047 15.0938 432.688 14.2266 433.438 13.4453C434.188 12.6484 435.055 12.0156 436.039 11.5469C437.039 11.0781 438.148 10.8438 439.367 10.8438ZM457.227 10.8438C459.414 10.8438 461.289 11.3281 462.852 12.2969C464.414 13.2656 465.609 14.625 466.438 16.375C467.266 18.1094 467.68 20.1406 467.68 22.4688V24.8828H449.938C449.984 27.8984 450.734 30.1953 452.188 31.7734C453.641 33.3516 455.688 34.1406 458.328 34.1406C459.953 34.1406 461.391 33.9922 462.641 33.6953C463.891 33.3984 465.188 32.9609 466.531 32.3828V35.8047C465.234 36.3828 463.945 36.8047 462.664 37.0703C461.398 37.3359 459.898 37.4688 458.164 37.4688C455.695 37.4688 453.539 36.9688 451.695 35.9688C449.867 34.9531 448.445 33.4688 447.43 31.5156C446.414 29.5625 445.906 27.1719 445.906 24.3438C445.906 21.5781 446.367 19.1875 447.289 17.1719C448.227 15.1406 449.539 13.5781 451.227 12.4844C452.93 11.3906 454.93 10.8438 457.227 10.8438ZM457.18 14.0312C455.102 14.0312 453.445 14.7109 452.211 16.0703C450.977 17.4297 450.242 19.3281 450.008 21.7656H463.602C463.586 20.2344 463.344 18.8906 462.875 17.7344C462.422 16.5625 461.727 15.6562 460.789 15.0156C459.852 14.3594 458.648 14.0312 457.18 14.0312Z" fill="white"/>
</svg>
