<svg width="20" height="25" viewBox="0 0 20 25" fill="none" xmlns="http://www.w3.org/2000/svg">
<path d="M18.826 3.44114C17.5057 0.896537 11.5365 0.356773 10.8626 0.287375L10.1061 0.233398V15.8788C9.93129 15.7204 9.74496 15.5785 9.5491 15.4547C8.85836 15.0649 8.1044 14.8359 7.33263 14.7816C6.56086 14.7273 5.78726 14.8487 5.05847 15.1386C2.22519 16.1641 0.402805 19.0943 0.994219 21.6697C1.12603 22.2144 1.35647 22.7228 1.67119 23.1633C1.9859 23.6037 2.37815 23.9667 2.82348 24.2298C3.58693 24.6865 4.44079 24.9199 5.30604 24.9083C6.00234 24.9077 6.6941 24.7827 7.35536 24.5382C9.89982 23.6206 11.619 21.1685 11.5228 18.8167V5.23778C12.2105 5.33031 13.1526 5.49224 14.1497 5.73128C15.1368 5.89952 16.0852 6.28192 16.9418 6.85707C17.6295 7.36599 17.2031 8.32214 17.1687 8.39925C16.84 8.95888 16.4572 9.47608 16.0271 9.94144C15.9021 10.0805 15.8294 10.2681 15.824 10.4655C15.8186 10.6629 15.881 10.8551 15.9983 11.0025C16.1156 11.1498 16.2789 11.2411 16.4544 11.2574C16.63 11.2738 16.8044 11.214 16.9418 11.0904C17.0862 10.913 20.7653 7.17322 18.826 3.44114Z" fill="white"/>
</svg>
