<svg width="30" height="30" viewBox="0 0 30 30" fill="none" xmlns="http://www.w3.org/2000/svg">
<path d="M23.4898 15.3418H14.9398V6.8368C14.9398 6.2548 14.5438 5.7808 13.9618 5.7808C13.3798 5.7808 12.9838 6.2518 12.9838 6.8368V16.3048C12.9838 16.8058 13.2568 17.1508 13.7278 17.2558C13.8208 17.2828 13.9198 17.2978 14.0218 17.2978H23.4898C24.0718 17.2978 24.5458 16.9018 24.5458 16.3198C24.5458 15.7348 24.0718 15.3418 23.4898 15.3418ZM14.9998 0.299805C23.1178 0.299805 29.6998 6.8818 29.6998 14.9998C29.6998 23.1178 23.1178 29.6998 14.9998 29.6998C6.8818 29.6998 0.299805 23.1178 0.299805 14.9998C0.299805 6.8818 6.8818 0.299805 14.9998 0.299805ZM14.9998 1.9468C13.2358 1.9468 11.5288 2.2918 9.91781 2.9728C8.36381 3.6298 6.96881 4.5718 5.7688 5.7718C4.5688 6.9718 3.6268 8.36681 2.9698 9.92081C2.2918 11.5288 1.9468 13.2358 1.9468 14.9998C1.9468 16.7638 2.2918 18.4708 2.9728 20.0788C3.6298 21.6328 4.5718 23.0278 5.7718 24.2278C6.9718 25.4278 8.36681 26.3698 9.92081 27.0268C11.5288 27.7078 13.2388 28.0528 14.9998 28.0528C16.7638 28.0528 18.4708 27.7078 20.0788 27.0268C21.6328 26.3698 23.0278 25.4278 24.2278 24.2278C25.4278 23.0278 26.3698 21.6328 27.0268 20.0788C27.7078 18.4708 28.0528 16.7608 28.0528 14.9998C28.0528 13.2358 27.7078 11.5258 27.0268 9.92081C26.3698 8.36681 25.4278 6.9718 24.2278 5.7718C23.0278 4.5718 21.6328 3.6298 20.0788 2.9728C18.4708 2.2918 16.7638 1.9468 14.9998 1.9468Z" fill="#666666"/>
</svg>
