<svg width="40" height="40" viewBox="0 0 40 40" fill="none" xmlns="http://www.w3.org/2000/svg">
<path d="M29.7468 6.3213H9.55416C8.87576 6.3213 8.32386 5.7693 8.32386 5.0908C8.32386 4.4124 8.87576 3.8601 9.55416 3.8601H31.5767C32.641 3.8601 33.5069 2.9944 33.5069 1.9301C33.5068 0.8659 32.6409 0 31.5767 0H9.55416C6.74717 0 4.46387 2.2838 4.46387 5.0907V34.21C4.46387 37.4027 7.06137 40 10.2539 40H29.7468C32.9394 40 35.5368 37.4024 35.5368 34.21V12.1112C35.5368 8.9189 32.9394 6.3213 29.7468 6.3213ZM27.9557 26.93C27.9557 28.5011 26.7202 29.8918 24.9655 30.1135C23.1141 30.3471 21.4429 29.1844 21.2321 27.5163C21.0221 25.8482 22.3522 24.3072 24.2032 24.0736C24.7358 24.0059 25.2537 24.0548 25.7259 24.1977V17.65H18.7873V28.3877C18.7873 29.9952 17.5852 31.4268 15.8004 31.6521C13.9492 31.8857 12.2776 30.723 12.0674 29.0549C11.8569 27.3868 13.1869 25.8452 15.0384 25.612C15.5698 25.545 16.0859 25.5932 16.5569 25.735V16.535C16.5569 15.9191 17.0565 15.4203 17.6724 15.4203H26.8412C27.457 15.4203 27.9559 15.9191 27.9559 16.535L27.9557 26.93Z" fill="white"/>
</svg>
