<svg width="434" height="47" viewBox="0 0 434 47" fill="none" xmlns="http://www.w3.org/2000/svg">
<path d="M4.984 3.36L14.92 27.552L24.904 3.36H29.656V36H25.576V22.032L26.104 9.456L16.744 32.16H12.808L3.64 9.36L4.168 22.032V36H0.0880003V3.36H4.984ZM56.2529 34.608C54.8129 35.312 53.3729 35.792 51.9329 36.048C50.4929 36.336 49.1649 36.48 47.9489 36.48C44.5249 36.48 41.9649 35.504 40.2689 33.552C38.6049 31.6 37.7729 28.928 37.7729 25.536V22.656C37.7729 19.36 38.6049 16.72 40.2689 14.736C41.9649 12.752 44.3489 11.76 47.4209 11.76C49.0529 11.76 50.5409 12.096 51.8849 12.768C53.2609 13.408 54.3489 14.4 55.1489 15.744C55.9809 17.056 56.3969 18.752 56.3969 20.832C56.3969 22.176 56.2049 23.712 55.8209 25.44H41.6609V25.536C41.6609 27.968 42.1569 29.808 43.1489 31.056C44.1729 32.304 45.8049 32.928 48.0449 32.928C49.0689 32.928 50.1889 32.8 51.4049 32.544C52.6529 32.288 53.8689 31.888 55.0529 31.344L56.2529 34.608ZM47.4209 15.216C45.5649 15.216 44.1569 15.824 43.1969 17.04C42.2689 18.224 41.7569 19.904 41.6609 22.08H52.4129C52.5089 21.504 52.5569 20.96 52.5569 20.448C52.5569 18.656 52.0449 17.344 51.0209 16.512C50.0289 15.648 48.8289 15.216 47.4209 15.216ZM77.6564 36V32.688C76.1844 34.096 74.8404 35.088 73.6244 35.664C72.4404 36.208 71.2084 36.48 69.9284 36.48C67.4004 36.48 65.4484 35.52 64.0724 33.6C62.7284 31.68 62.0564 28.992 62.0564 25.536V22.752C62.0564 19.392 62.8884 16.72 64.5524 14.736C66.2484 12.752 68.6964 11.76 71.8964 11.76C72.8244 11.76 73.7524 11.856 74.6804 12.048C75.6084 12.24 76.5364 12.512 77.4644 12.864V0.48H81.4004V36H77.6564ZM66.1364 25.536C66.1364 28.032 66.5204 29.872 67.2884 31.056C68.0884 32.208 69.2724 32.784 70.8404 32.784C71.7684 32.784 72.7284 32.56 73.7204 32.112C74.7124 31.632 75.9604 30.656 77.4644 29.184V16.512C76.5364 16.096 75.6404 15.808 74.7764 15.648C73.9124 15.456 73.0644 15.36 72.2324 15.36C70.0564 15.36 68.4884 16.016 67.5284 17.328C66.6004 18.64 66.1364 20.448 66.1364 22.752V25.536ZM94.0563 6.432H89.6403V2.016H94.0563V6.432ZM93.8163 36H89.8803V12.24H93.8163V36ZM115.358 35.136C113.566 36.032 111.662 36.48 109.646 36.48C107.918 36.48 106.558 36.128 105.566 35.424C104.606 34.72 103.918 33.776 103.502 32.592C103.118 31.408 102.926 30.096 102.926 28.656V15.696H98.7981V12.24H102.926V5.616H106.862V12.24H114.638V15.696H106.862V28.512C106.862 30.176 107.134 31.328 107.678 31.968C108.254 32.576 109.134 32.88 110.318 32.88C110.894 32.88 111.486 32.816 112.094 32.688C112.734 32.528 113.422 32.272 114.158 31.92L115.358 35.136ZM137.913 36.24C136.441 36.24 135.257 35.904 134.361 35.232C133.497 34.56 132.889 33.728 132.537 32.736C130.969 34.112 129.545 35.088 128.265 35.664C126.985 36.208 125.705 36.48 124.425 36.48C122.345 36.48 120.809 35.808 119.817 34.464C118.825 33.12 118.329 31.472 118.329 29.52C118.329 28.208 118.569 27.04 119.049 26.016C119.529 24.992 120.345 24.192 121.497 23.616C122.649 23.008 124.201 22.704 126.153 22.704C127.017 22.704 127.961 22.768 128.984 22.896C130.009 22.992 131.049 23.12 132.105 23.28V20.064C132.105 18.272 131.705 17.056 130.905 16.416C130.137 15.744 129.001 15.408 127.497 15.408C125.449 15.408 123.161 15.968 120.633 17.088L119.385 13.824C120.857 13.152 122.265 12.64 123.609 12.288C124.953 11.936 126.313 11.76 127.689 11.76C129.929 11.76 131.641 12.128 132.825 12.864C134.009 13.6 134.825 14.576 135.273 15.792C135.721 17.008 135.945 18.336 135.945 19.776V30.048C135.945 30.784 136.089 31.408 136.377 31.92C136.665 32.4 137.241 32.64 138.105 32.64H138.633V36.24H137.913ZM122.217 29.472C122.217 30.56 122.473 31.44 122.985 32.112C123.497 32.784 124.233 33.12 125.193 33.12C126.025 33.12 126.985 32.88 128.073 32.4C129.161 31.888 130.505 30.88 132.105 29.376V26.352C129.929 26 128.009 25.824 126.345 25.824C124.873 25.824 123.817 26.128 123.177 26.736C122.537 27.344 122.217 28.256 122.217 29.472ZM157.264 35.136C155.472 36.032 153.568 36.48 151.552 36.48C149.824 36.48 148.464 36.128 147.472 35.424C146.512 34.72 145.824 33.776 145.408 32.592C145.024 31.408 144.832 30.096 144.832 28.656V15.696H140.704V12.24H144.832V5.616H148.768V12.24H156.544V15.696H148.768V28.512C148.768 30.176 149.04 31.328 149.584 31.968C150.16 32.576 151.04 32.88 152.224 32.88C152.8 32.88 153.392 32.816 154 32.688C154.64 32.528 155.328 32.272 156.064 31.92L157.264 35.136ZM166.619 6.432H162.203V2.016H166.619V6.432ZM166.379 36H162.443V12.24H166.379V36ZM193.681 22.656V25.536C193.681 28.928 192.801 31.6 191.041 33.552C189.313 35.504 186.833 36.48 183.601 36.48C180.401 36.48 177.921 35.504 176.161 33.552C174.401 31.6 173.521 28.928 173.521 25.536V22.656C173.521 19.328 174.385 16.688 176.113 14.736C177.873 12.752 180.369 11.76 183.601 11.76C186.833 11.76 189.313 12.752 191.041 14.736C192.801 16.688 193.681 19.328 193.681 22.656ZM189.601 22.656C189.601 20.384 189.089 18.608 188.065 17.328C187.041 16.016 185.553 15.36 183.601 15.36C181.681 15.36 180.193 16.016 179.137 17.328C178.113 18.608 177.601 20.384 177.601 22.656V25.536C177.601 27.904 178.113 29.728 179.137 31.008C180.193 32.288 181.681 32.928 183.601 32.928C185.553 32.928 187.041 32.288 188.065 31.008C189.089 29.728 189.601 27.904 189.601 25.536V22.656ZM212.257 15.456C211.361 15.456 210.305 15.68 209.089 16.128C207.905 16.576 206.465 17.488 204.769 18.864V36H200.833V12.24H204.577V15.552C206.273 14.112 207.809 13.12 209.185 12.576C210.593 12.032 211.937 11.76 213.217 11.76C215.425 11.76 217.105 12.464 218.257 13.872C219.441 15.248 220.033 17.216 220.033 19.776V36H216.097V20.352C216.097 17.088 214.817 15.456 212.257 15.456ZM246.399 36L243.951 28.416H231.567L229.119 36H225.039L235.887 3.36H239.823L250.719 36H246.399ZM234.591 19.008L232.767 24.624H242.703L240.879 19.008L237.759 8.928L234.591 19.008ZM267.195 15.456C266.299 15.456 265.243 15.68 264.027 16.128C262.843 16.576 261.403 17.488 259.707 18.864V36H255.771V12.24H259.515V15.552C261.211 14.112 262.747 13.12 264.123 12.576C265.531 12.032 266.875 11.76 268.155 11.76C270.363 11.76 272.043 12.464 273.195 13.872C274.379 15.248 274.971 17.216 274.971 19.776V36H271.035V20.352C271.035 17.088 269.755 15.456 267.195 15.456ZM290.602 38.4C289.578 41.28 288.314 43.376 286.81 44.688C285.338 46.032 283.274 46.704 280.618 46.704V42.816C281.706 42.784 282.634 42.64 283.402 42.384C284.202 42.128 284.906 41.6 285.514 40.8C286.154 40.032 286.762 38.88 287.338 37.344L287.818 36.144L279.274 12.24H283.306L287.29 23.808L289.738 31.2L292.09 23.808L295.978 12.24H299.866L290.602 38.4ZM309.834 17.184L312.138 30.384L319.674 3.36H323.562L331.098 30.24L333.498 17.184L336.33 3.36H340.458L333.258 36H329.034L321.546 9.312L314.058 36H309.786L302.634 3.36H307.002L309.834 17.184ZM357.851 15.456C356.955 15.456 355.899 15.68 354.683 16.128C353.499 16.576 352.059 17.488 350.363 18.864V36H346.427V0.48H350.363V15.408C352.027 14 353.531 13.04 354.875 12.528C356.219 12.016 357.531 11.76 358.811 11.76C361.019 11.76 362.699 12.464 363.851 13.872C365.035 15.248 365.627 17.216 365.627 19.776V36H361.691V20.352C361.691 17.088 360.411 15.456 357.851 15.456ZM391.081 34.608C389.641 35.312 388.201 35.792 386.761 36.048C385.321 36.336 383.993 36.48 382.777 36.48C379.353 36.48 376.793 35.504 375.097 33.552C373.433 31.6 372.601 28.928 372.601 25.536V22.656C372.601 19.36 373.433 16.72 375.097 14.736C376.793 12.752 379.177 11.76 382.249 11.76C383.881 11.76 385.369 12.096 386.713 12.768C388.089 13.408 389.177 14.4 389.977 15.744C390.809 17.056 391.225 18.752 391.225 20.832C391.225 22.176 391.033 23.712 390.649 25.44H376.489V25.536C376.489 27.968 376.985 29.808 377.977 31.056C379.001 32.304 380.633 32.928 382.873 32.928C383.897 32.928 385.017 32.8 386.233 32.544C387.481 32.288 388.697 31.888 389.881 31.344L391.081 34.608ZM382.249 15.216C380.393 15.216 378.985 15.824 378.025 17.04C377.097 18.224 376.585 19.904 376.489 22.08H387.241C387.337 21.504 387.385 20.96 387.385 20.448C387.385 18.656 386.873 17.344 385.849 16.512C384.857 15.648 383.657 15.216 382.249 15.216ZM410.517 15.696C409.077 15.696 407.669 15.952 406.293 16.464C404.949 16.976 403.509 17.952 401.973 19.392V36H398.037V12.24H401.781V16.08C403.413 14.48 404.901 13.36 406.245 12.72C407.621 12.08 409.045 11.76 410.517 11.76V15.696ZM432.894 34.608C431.454 35.312 430.014 35.792 428.574 36.048C427.134 36.336 425.806 36.48 424.59 36.48C421.166 36.48 418.606 35.504 416.91 33.552C415.246 31.6 414.414 28.928 414.414 25.536V22.656C414.414 19.36 415.246 16.72 416.91 14.736C418.606 12.752 420.99 11.76 424.062 11.76C425.694 11.76 427.182 12.096 428.526 12.768C429.902 13.408 430.99 14.4 431.79 15.744C432.622 17.056 433.038 18.752 433.038 20.832C433.038 22.176 432.846 23.712 432.462 25.44H418.302V25.536C418.302 27.968 418.798 29.808 419.79 31.056C420.814 32.304 422.446 32.928 424.686 32.928C425.71 32.928 426.83 32.8 428.046 32.544C429.294 32.288 430.51 31.888 431.694 31.344L432.894 34.608ZM424.062 15.216C422.206 15.216 420.798 15.824 419.838 17.04C418.91 18.224 418.398 19.904 418.302 22.08H429.054C429.15 21.504 429.198 20.96 429.198 20.448C429.198 18.656 428.686 17.344 427.662 16.512C426.67 15.648 425.47 15.216 424.062 15.216Z" fill="white"/>
</svg>
