<svg width="40" height="40" viewBox="0 0 40 40" fill="none" xmlns="http://www.w3.org/2000/svg">
<path d="M20 0C8.9725 0 0 8.9725 0 20C0 31.0275 8.9725 40 20 40C31.0275 40 40 31.0275 40 20C40 8.9725 31.0275 0 20 0ZM20 38.3334C9.89086 38.3334 1.66664 30.1091 1.66664 20C1.66664 9.89086 9.89086 1.66664 20 1.66664C30.1091 1.66664 38.3334 9.89086 38.3334 20C38.3334 30.1091 30.1091 38.3334 20 38.3334Z" fill="white"/>
<path d="M27.5004 11.667H12.5004C12.0401 11.667 11.667 12.0401 11.667 12.5004V27.5004C11.667 27.9606 12.0401 28.3337 12.5004 28.3337H27.5004C27.9606 28.3337 28.3337 27.9606 28.3337 27.5004V12.5004C28.3337 12.0401 27.9606 11.667 27.5004 11.667ZM26.667 26.667H13.3337V13.3337H26.6671V26.667H26.667Z" fill="white"/>
</svg>
