<svg width="40" height="40" viewBox="0 0 40 40" fill="none" xmlns="http://www.w3.org/2000/svg">
<path d="M28.6784 0.0078125C28.3034 0.0078125 27.9284 0.0970935 27.6427 0.293521L10.6785 8.72206H2.5357C1.12499 8.72206 0 9.84705 0 11.2578V28.7755C0 30.0791 1.12499 31.2041 2.5357 31.2041H10.6785L27.6427 39.7219C29.232 40.5612 31.1963 39.3469 31.1963 37.4719V2.52565C31.2141 1.1328 30.0892 0.0078125 28.6784 0.0078125ZM26.2499 33.4541L12.3928 26.5256C12.0178 26.347 11.6428 26.2398 11.2678 26.2398H4.99998V13.7756H11.2678C11.6428 13.7756 12.0178 13.6863 12.3928 13.4899L26.2499 6.56136V33.4541Z" fill="white"/>
<path d="M37.482 13.1325C36.0713 13.1325 34.9463 14.2575 34.9463 15.6682V24.3824C34.9463 27.7574 39.9998 27.7574 39.9998 24.3824V15.6682C40.0177 14.2575 38.8927 13.0253 37.482 13.1325Z" fill="white"/>
</svg>
