<svg width="36" height="36" viewBox="0 0 36 36" fill="none" xmlns="http://www.w3.org/2000/svg">
<path d="M25.8106 0C25.4731 0 25.1356 0.0803528 24.8784 0.257137L9.61066 7.84281H2.28213C1.01249 7.84281 0 8.85531 0 10.1249V25.8909C0 27.0641 1.01249 28.0766 2.28213 28.0766H9.61066L24.8784 35.7426C26.3088 36.498 28.0766 35.4052 28.0766 33.7177V2.26605C28.0927 1.01249 27.0802 0 25.8106 0ZM23.6249 30.1016L11.1535 23.8659C10.816 23.7052 10.4785 23.6088 10.141 23.6088H4.49997V12.391H10.141C10.4785 12.391 10.816 12.3106 11.1535 12.1339L23.6249 5.89818V30.1016Z" fill="white"/>
<path d="M33.7333 11.8125C32.4637 11.8125 31.4512 12.825 31.4512 14.0946V21.9374C31.4512 24.9749 35.9994 24.9749 35.9994 21.9374V14.0946C36.0154 12.825 35.0029 11.7161 33.7333 11.8125Z" fill="white"/>
<line x1="3.06066" y1="3.93934" x2="33.0607" y2="33.9393" stroke="white" stroke-width="3"/>
</svg>
